<svg width="375px" height="667px" viewBox="0 0 375 667" fill="none" xmlns="http://www.w3.org/2000/svg">
                <rect width="375" height="667" fill="black" />
                <rect x="204.5" y="324" width="12" height="35" transform="rotate(-180 204.5 324)" fill="white" />
                <rect x="189.5" y="324" width="8" height="35" transform="rotate(-180 189.5 324)" fill="white" />
                <rect x="178.5" y="324" width="4" height="35" transform="rotate(-180 178.5 324)" fill="white" />
                <rect x="171.5" y="324" width="2" height="35" transform="rotate(-180 171.5 324)" fill="white" />
                <path d="M135.602 350H132.799V335.996H135.602V350ZM151.41 350H148.412L143.012 340.781V350H140.209V335.996H143.207L148.607 345.225V335.996H151.41V350ZM161.896 350H159.104V338.799H154.895V335.996H166.096V338.799H161.896V350ZM179.18 350H169.58V335.996H179.18V338.799H172.383V341.602H176.982V344.404H172.383V347.197H179.18V350ZM185.945 338.799V344.404H188.748C189.132 344.404 189.493 344.333 189.832 344.189C190.171 344.04 190.467 343.838 190.721 343.584C190.975 343.33 191.173 343.034 191.316 342.695C191.466 342.35 191.541 341.986 191.541 341.602C191.541 341.217 191.466 340.856 191.316 340.518C191.173 340.173 190.975 339.873 190.721 339.619C190.467 339.365 190.171 339.167 189.832 339.023C189.493 338.874 189.132 338.799 188.748 338.799H185.945ZM185.945 350H183.143V335.996H188.748C189.262 335.996 189.757 336.064 190.232 336.201C190.708 336.331 191.15 336.52 191.561 336.768C191.977 337.008 192.355 337.301 192.693 337.646C193.038 337.985 193.331 338.363 193.572 338.779C193.82 339.196 194.008 339.642 194.139 340.117C194.275 340.592 194.344 341.087 194.344 341.602C194.344 342.083 194.282 342.552 194.158 343.008C194.041 343.464 193.868 343.896 193.641 344.307C193.419 344.717 193.146 345.094 192.82 345.439C192.495 345.785 192.13 346.084 191.727 346.338L193.279 350H190.301L189.08 347.178L185.945 347.197V350ZM208.756 335.996L204.156 350H201.354L196.773 335.996H199.957L202.75 345.342L205.553 335.996H208.756ZM220.033 344.404V341.602C220.033 341.217 219.958 340.856 219.809 340.518C219.665 340.173 219.467 339.873 219.213 339.619C218.959 339.365 218.66 339.167 218.314 339.023C217.976 338.874 217.615 338.799 217.23 338.799C216.846 338.799 216.482 338.874 216.137 339.023C215.798 339.167 215.502 339.365 215.248 339.619C214.994 339.873 214.792 340.173 214.643 340.518C214.499 340.856 214.428 341.217 214.428 341.602V344.404H220.033ZM222.836 350H220.033V347.197H214.428V350H211.635V341.602C211.635 340.827 211.781 340.101 212.074 339.424C212.367 338.74 212.764 338.145 213.266 337.637C213.773 337.129 214.366 336.729 215.043 336.436C215.727 336.143 216.456 335.996 217.23 335.996C218.005 335.996 218.731 336.143 219.408 336.436C220.092 336.729 220.688 337.129 221.195 337.637C221.703 338.145 222.104 338.74 222.396 339.424C222.689 340.101 222.836 340.827 222.836 341.602V350ZM237.072 350H227.268V335.996H230.07V347.197H237.072V350Z" fill="white" />
                <path d="M96.6595 365.2H101.994V366.236H97.8215V369.582H101.714V370.618H97.8215V375H96.6595V365.2ZM104.788 371.5C104.788 370.315 105.049 369.409 105.572 368.784C106.104 368.149 106.865 367.832 107.854 367.832C108.377 367.832 108.829 367.921 109.212 368.098C109.604 368.266 109.926 368.513 110.178 368.84C110.43 369.157 110.617 369.545 110.738 370.002C110.859 370.45 110.92 370.949 110.92 371.5C110.92 372.685 110.654 373.595 110.122 374.23C109.599 374.855 108.843 375.168 107.854 375.168C107.331 375.168 106.874 375.084 106.482 374.916C106.099 374.739 105.782 374.491 105.53 374.174C105.278 373.847 105.091 373.46 104.97 373.012C104.849 372.555 104.788 372.051 104.788 371.5ZM105.95 371.5C105.95 371.855 105.983 372.195 106.048 372.522C106.123 372.849 106.235 373.133 106.384 373.376C106.533 373.619 106.729 373.815 106.972 373.964C107.215 374.113 107.509 374.188 107.854 374.188C109.123 374.197 109.758 373.301 109.758 371.5C109.758 371.136 109.721 370.791 109.646 370.464C109.581 370.137 109.473 369.853 109.324 369.61C109.175 369.367 108.979 369.176 108.736 369.036C108.493 368.887 108.199 368.812 107.854 368.812C106.585 368.803 105.95 369.699 105.95 371.5ZM117.39 369.078C117.11 368.985 116.844 368.938 116.592 368.938C116.19 368.938 115.873 369.05 115.64 369.274C115.406 369.489 115.262 369.764 115.206 370.1V375H114.086V368H114.87L115.08 368.854H115.136C115.313 368.537 115.523 368.294 115.766 368.126C116.018 367.949 116.335 367.86 116.718 367.86C116.988 367.86 117.292 367.907 117.628 368L117.39 369.078ZM125.264 368.518C125.619 368.303 126.029 368.145 126.496 368.042C126.972 367.939 127.467 367.888 127.98 367.888C128.465 367.888 128.853 367.953 129.142 368.084C129.441 368.215 129.665 368.387 129.814 368.602C129.973 368.807 130.075 369.036 130.122 369.288C130.178 369.54 130.206 369.792 130.206 370.044C130.206 370.604 130.192 371.15 130.164 371.682C130.136 372.214 130.122 372.718 130.122 373.194C130.122 373.539 130.136 373.866 130.164 374.174C130.192 374.482 130.243 374.767 130.318 375.028H129.492L129.198 374.048H129.128C129.044 374.179 128.937 374.309 128.806 374.44C128.685 374.561 128.535 374.673 128.358 374.776C128.181 374.869 127.975 374.949 127.742 375.014C127.509 375.079 127.243 375.112 126.944 375.112C126.645 375.112 126.365 375.065 126.104 374.972C125.852 374.879 125.633 374.748 125.446 374.58C125.259 374.403 125.11 374.193 124.998 373.95C124.895 373.707 124.844 373.432 124.844 373.124C124.844 372.713 124.928 372.373 125.096 372.102C125.264 371.822 125.497 371.603 125.796 371.444C126.104 371.276 126.468 371.159 126.888 371.094C127.317 371.019 127.789 370.982 128.302 370.982C128.433 370.982 128.559 370.982 128.68 370.982C128.811 370.982 128.941 370.991 129.072 371.01C129.1 370.73 129.114 370.478 129.114 370.254C129.114 369.741 129.011 369.381 128.806 369.176C128.601 368.971 128.227 368.868 127.686 368.868C127.527 368.868 127.355 368.882 127.168 368.91C126.991 368.929 126.804 368.961 126.608 369.008C126.421 369.045 126.239 369.097 126.062 369.162C125.894 369.218 125.745 369.283 125.614 369.358L125.264 368.518ZM127.252 374.132C127.513 374.132 127.747 374.099 127.952 374.034C128.157 373.959 128.335 373.871 128.484 373.768C128.633 373.656 128.755 373.535 128.848 373.404C128.951 373.273 129.025 373.147 129.072 373.026V371.864C128.941 371.855 128.806 371.85 128.666 371.85C128.535 371.841 128.405 371.836 128.274 371.836C127.985 371.836 127.7 371.855 127.42 371.892C127.149 371.92 126.907 371.981 126.692 372.074C126.487 372.158 126.319 372.279 126.188 372.438C126.067 372.587 126.006 372.779 126.006 373.012C126.006 373.339 126.123 373.609 126.356 373.824C126.589 374.029 126.888 374.132 127.252 374.132ZM134.967 373.278C134.967 373.605 135.023 373.838 135.135 373.978C135.247 374.118 135.406 374.188 135.611 374.188C135.733 374.188 135.863 374.179 136.003 374.16C136.143 374.141 136.302 374.099 136.479 374.034L136.605 374.916C136.456 374.991 136.246 375.051 135.975 375.098C135.714 375.145 135.485 375.168 135.289 375.168C134.869 375.168 134.524 375.051 134.253 374.818C133.983 374.575 133.847 374.169 133.847 373.6V365.2H134.967V373.278ZM140.455 373.278C140.455 373.605 140.511 373.838 140.623 373.978C140.735 374.118 140.894 374.188 141.099 374.188C141.221 374.188 141.351 374.179 141.491 374.16C141.631 374.141 141.79 374.099 141.967 374.034L142.093 374.916C141.944 374.991 141.734 375.051 141.463 375.098C141.202 375.145 140.973 375.168 140.777 375.168C140.357 375.168 140.012 375.051 139.741 374.818C139.471 374.575 139.335 374.169 139.335 373.6V365.2H140.455V373.278ZM151.696 372.536L152.088 373.88H152.158L152.466 372.522L153.824 368H154.958L152.886 374.286C152.727 374.743 152.569 375.187 152.41 375.616C152.261 376.045 152.093 376.428 151.906 376.764C151.719 377.1 151.509 377.366 151.276 377.562C151.043 377.767 150.772 377.87 150.464 377.87C150.128 377.87 149.853 377.823 149.638 377.73L149.834 376.764C149.955 376.811 150.072 376.834 150.184 376.834C150.445 376.834 150.697 376.694 150.94 376.414C151.183 376.143 151.383 375.672 151.542 375L148.728 368H150.016L151.696 372.536ZM157.017 371.5C157.017 370.315 157.279 369.409 157.801 368.784C158.333 368.149 159.094 367.832 160.083 367.832C160.606 367.832 161.059 367.921 161.441 368.098C161.833 368.266 162.155 368.513 162.407 368.84C162.659 369.157 162.846 369.545 162.967 370.002C163.089 370.45 163.149 370.949 163.149 371.5C163.149 372.685 162.883 373.595 162.351 374.23C161.829 374.855 161.073 375.168 160.083 375.168C159.561 375.168 159.103 375.084 158.711 374.916C158.329 374.739 158.011 374.491 157.759 374.174C157.507 373.847 157.321 373.46 157.199 373.012C157.078 372.555 157.017 372.051 157.017 371.5ZM158.179 371.5C158.179 371.855 158.212 372.195 158.277 372.522C158.352 372.849 158.464 373.133 158.613 373.376C158.763 373.619 158.959 373.815 159.201 373.964C159.444 374.113 159.738 374.188 160.083 374.188C161.353 374.197 161.987 373.301 161.987 371.5C161.987 371.136 161.95 370.791 161.875 370.464C161.81 370.137 161.703 369.853 161.553 369.61C161.404 369.367 161.208 369.176 160.965 369.036C160.723 368.887 160.429 368.812 160.083 368.812C158.814 368.803 158.179 369.699 158.179 371.5ZM167.323 368V371.99C167.323 372.354 167.342 372.676 167.379 372.956C167.426 373.227 167.5 373.455 167.603 373.642C167.706 373.819 167.846 373.955 168.023 374.048C168.2 374.141 168.424 374.188 168.695 374.188C168.947 374.188 169.171 374.151 169.367 374.076C169.563 373.992 169.736 373.88 169.885 373.74C170.044 373.6 170.179 373.441 170.291 373.264C170.412 373.077 170.51 372.881 170.585 372.676V368H171.705V373.012C171.705 373.348 171.714 373.698 171.733 374.062C171.761 374.417 171.803 374.729 171.859 375H171.089L170.809 373.894H170.739C170.524 374.258 170.235 374.561 169.871 374.804C169.507 375.047 169.045 375.168 168.485 375.168C168.112 375.168 167.78 375.121 167.491 375.028C167.211 374.944 166.973 374.79 166.777 374.566C166.59 374.342 166.446 374.043 166.343 373.67C166.25 373.287 166.203 372.807 166.203 372.228V368H167.323ZM178.566 369.078C178.286 368.985 178.02 368.938 177.768 368.938C177.367 368.938 177.049 369.05 176.816 369.274C176.583 369.489 176.438 369.764 176.382 370.1V375H175.262V368H176.046L176.256 368.854H176.312C176.489 368.537 176.699 368.294 176.942 368.126C177.194 367.949 177.511 367.86 177.894 367.86C178.165 367.86 178.468 367.907 178.804 368L178.566 369.078ZM185.628 368H186.72V366.614L187.84 366.292V368H189.744V368.98H187.84V372.858C187.84 373.343 187.901 373.689 188.022 373.894C188.144 374.09 188.349 374.188 188.638 374.188C188.881 374.188 189.086 374.165 189.254 374.118C189.422 374.062 189.609 373.992 189.814 373.908L190.066 374.762C189.814 374.883 189.539 374.981 189.24 375.056C188.942 375.131 188.62 375.168 188.274 375.168C187.705 375.168 187.304 375.009 187.07 374.692C186.837 374.365 186.72 373.824 186.72 373.068V368.98H185.628V368ZM192.934 368H194.054V375H192.934V368ZM192.696 365.872C192.696 365.657 192.766 365.475 192.906 365.326C193.056 365.167 193.242 365.088 193.466 365.088C193.69 365.088 193.882 365.167 194.04 365.326C194.199 365.475 194.278 365.657 194.278 365.872C194.278 366.087 194.199 366.264 194.04 366.404C193.882 366.544 193.69 366.614 193.466 366.614C193.242 366.614 193.056 366.544 192.906 366.404C192.766 366.264 192.696 366.087 192.696 365.872ZM201.944 375V371.038C201.944 370.665 201.926 370.343 201.888 370.072C201.86 369.792 201.8 369.559 201.706 369.372C201.613 369.185 201.478 369.045 201.3 368.952C201.132 368.859 200.908 368.812 200.628 368.812C200.199 368.812 199.84 368.943 199.55 369.204C199.27 369.465 199.074 369.792 198.962 370.184V375H197.842V368H198.626L198.836 368.854H198.892C199.144 368.555 199.434 368.313 199.76 368.126C200.096 367.93 200.53 367.832 201.062 367.832C201.51 367.832 201.874 367.921 202.154 368.098C202.444 368.266 202.668 368.565 202.826 368.994C203.041 368.63 203.335 368.345 203.708 368.14C204.091 367.935 204.52 367.832 204.996 367.832C205.388 367.832 205.72 367.879 205.99 367.972C206.261 368.056 206.485 368.21 206.662 368.434C206.84 368.658 206.966 368.961 207.04 369.344C207.124 369.727 207.166 370.212 207.166 370.8V375H206.046V370.786C206.046 370.45 206.028 370.161 205.99 369.918C205.962 369.666 205.897 369.461 205.794 369.302C205.701 369.134 205.566 369.013 205.388 368.938C205.22 368.854 204.996 368.812 204.716 368.812C204.25 368.812 203.886 368.943 203.624 369.204C203.363 369.465 203.176 369.839 203.064 370.324V375H201.944ZM210.842 368H211.962V375H210.842V368ZM210.604 365.872C210.604 365.657 210.674 365.475 210.814 365.326C210.963 365.167 211.15 365.088 211.374 365.088C211.598 365.088 211.789 365.167 211.948 365.326C212.106 365.475 212.186 365.657 212.186 365.872C212.186 366.087 212.106 366.264 211.948 366.404C211.789 366.544 211.598 366.614 211.374 366.614C211.15 366.614 210.963 366.544 210.814 366.404C210.674 366.264 210.604 366.087 210.604 365.872ZM220.244 375V371.01C220.244 370.282 220.137 369.736 219.922 369.372C219.717 368.999 219.334 368.812 218.774 368.812C218.279 368.812 217.869 368.947 217.542 369.218C217.225 369.479 217.001 369.811 216.87 370.212V375H215.75V368H216.534L216.744 368.854H216.8C217.024 368.555 217.323 368.313 217.696 368.126C218.079 367.93 218.531 367.832 219.054 367.832C219.437 367.832 219.773 367.879 220.062 367.972C220.351 368.056 220.589 368.21 220.776 368.434C220.972 368.658 221.117 368.961 221.21 369.344C221.313 369.717 221.364 370.193 221.364 370.772V375H220.244ZM230.168 375.322C230.168 376.227 229.925 376.895 229.44 377.324C228.964 377.753 228.255 377.968 227.312 377.968C226.752 377.968 226.299 377.931 225.954 377.856C225.618 377.791 225.329 377.702 225.086 377.59L225.38 376.638C225.595 376.722 225.833 376.801 226.094 376.876C226.355 376.951 226.696 376.988 227.116 376.988C227.508 376.988 227.825 376.951 228.068 376.876C228.32 376.811 228.521 376.694 228.67 376.526C228.819 376.367 228.922 376.157 228.978 375.896C229.034 375.644 229.062 375.341 229.062 374.986V374.314H229.006C228.819 374.585 228.581 374.795 228.292 374.944C228.003 375.084 227.625 375.154 227.158 375.154C226.215 375.154 225.52 374.86 225.072 374.272C224.633 373.684 224.414 372.769 224.414 371.528C224.414 370.333 224.699 369.428 225.268 368.812C225.837 368.187 226.677 367.874 227.788 367.874C228.32 367.874 228.773 367.916 229.146 368C229.529 368.084 229.869 368.182 230.168 368.294V375.322ZM227.354 374.174C227.83 374.174 228.203 374.057 228.474 373.824C228.745 373.581 228.936 373.208 229.048 372.704V369.12C228.675 368.943 228.199 368.854 227.62 368.854C226.985 368.854 226.486 369.069 226.122 369.498C225.758 369.927 225.576 370.599 225.576 371.514C225.576 371.906 225.609 372.265 225.674 372.592C225.739 372.919 225.842 373.199 225.982 373.432C226.122 373.665 226.304 373.847 226.528 373.978C226.752 374.109 227.027 374.174 227.354 374.174ZM243.352 375V371.01C243.352 370.282 243.245 369.736 243.03 369.372C242.825 368.999 242.442 368.812 241.882 368.812C241.387 368.812 240.977 368.947 240.65 369.218C240.333 369.479 240.109 369.811 239.978 370.212V375H238.858V368H239.642L239.852 368.854H239.908C240.132 368.555 240.431 368.313 240.804 368.126C241.187 367.93 241.639 367.832 242.162 367.832C242.545 367.832 242.881 367.879 243.17 367.972C243.459 368.056 243.697 368.21 243.884 368.434C244.08 368.658 244.225 368.961 244.318 369.344C244.421 369.717 244.472 370.193 244.472 370.772V375H243.352ZM253.024 374.44C252.744 374.664 252.39 374.841 251.96 374.972C251.54 375.103 251.092 375.168 250.616 375.168C250.084 375.168 249.622 375.084 249.23 374.916C248.838 374.739 248.516 374.491 248.264 374.174C248.012 373.847 247.826 373.46 247.704 373.012C247.583 372.564 247.522 372.06 247.522 371.5C247.522 370.305 247.788 369.395 248.32 368.77C248.852 368.145 249.613 367.832 250.602 367.832C250.92 367.832 251.237 367.869 251.554 367.944C251.872 368.009 252.156 368.14 252.408 368.336C252.66 368.532 252.866 368.812 253.024 369.176C253.183 369.531 253.262 370.002 253.262 370.59C253.262 370.898 253.234 371.239 253.178 371.612H248.684C248.684 372.023 248.726 372.387 248.81 372.704C248.894 373.021 249.025 373.292 249.202 373.516C249.38 373.731 249.608 373.899 249.888 374.02C250.178 374.132 250.528 374.188 250.938 374.188C251.256 374.188 251.573 374.132 251.89 374.02C252.208 373.908 252.446 373.777 252.604 373.628L253.024 374.44ZM250.616 368.812C250.066 368.812 249.622 368.957 249.286 369.246C248.96 369.535 248.764 370.03 248.698 370.73H252.17C252.17 370.021 252.035 369.526 251.764 369.246C251.494 368.957 251.111 368.812 250.616 368.812ZM261.383 374.44C261.103 374.664 260.749 374.841 260.319 374.972C259.899 375.103 259.451 375.168 258.975 375.168C258.443 375.168 257.981 375.084 257.589 374.916C257.197 374.739 256.875 374.491 256.623 374.174C256.371 373.847 256.185 373.46 256.063 373.012C255.942 372.564 255.881 372.06 255.881 371.5C255.881 370.305 256.147 369.395 256.679 368.77C257.211 368.145 257.972 367.832 258.961 367.832C259.279 367.832 259.596 367.869 259.913 367.944C260.231 368.009 260.515 368.14 260.767 368.336C261.019 368.532 261.225 368.812 261.383 369.176C261.542 369.531 261.621 370.002 261.621 370.59C261.621 370.898 261.593 371.239 261.537 371.612H257.043C257.043 372.023 257.085 372.387 257.169 372.704C257.253 373.021 257.384 373.292 257.561 373.516C257.739 373.731 257.967 373.899 258.247 374.02C258.537 374.132 258.887 374.188 259.297 374.188C259.615 374.188 259.932 374.132 260.249 374.02C260.567 373.908 260.805 373.777 260.963 373.628L261.383 374.44ZM258.975 368.812C258.425 368.812 257.981 368.957 257.645 369.246C257.319 369.535 257.123 370.03 257.057 370.73H260.529C260.529 370.021 260.394 369.526 260.123 369.246C259.853 368.957 259.47 368.812 258.975 368.812ZM270.159 372.592C270.159 373.068 270.163 373.502 270.173 373.894C270.182 374.277 270.224 374.655 270.299 375.028H269.543L269.263 374.034H269.207C269.02 374.361 268.749 374.631 268.395 374.846C268.04 375.061 267.625 375.168 267.149 375.168C266.215 375.168 265.52 374.874 265.063 374.286C264.615 373.698 264.391 372.779 264.391 371.528C264.391 370.333 264.671 369.428 265.231 368.812C265.8 368.187 266.579 367.874 267.569 367.874C267.914 367.874 268.185 367.893 268.381 367.93C268.586 367.967 268.805 368.028 269.039 368.112V365.2H270.159V372.592ZM267.331 374.188C267.807 374.188 268.185 374.067 268.465 373.824C268.745 373.572 268.936 373.194 269.039 372.69V369.218C268.871 369.087 268.679 368.994 268.465 368.938C268.25 368.882 267.965 368.854 267.611 368.854C266.967 368.854 266.463 369.069 266.099 369.498C265.735 369.918 265.553 370.595 265.553 371.528C265.553 371.911 265.581 372.265 265.637 372.592C265.702 372.919 265.805 373.199 265.945 373.432C266.085 373.665 266.267 373.852 266.491 373.992C266.724 374.123 267.004 374.188 267.331 374.188ZM276.796 373.096C276.796 372.816 276.712 372.597 276.544 372.438C276.376 372.279 276.166 372.149 275.914 372.046C275.671 371.934 275.401 371.831 275.102 371.738C274.813 371.635 274.542 371.509 274.29 371.36C274.047 371.201 273.842 371.001 273.674 370.758C273.506 370.515 273.422 370.189 273.422 369.778C273.422 369.106 273.613 368.616 273.996 368.308C274.379 367.991 274.911 367.832 275.592 367.832C276.096 367.832 276.516 367.879 276.852 367.972C277.197 368.056 277.496 368.159 277.748 368.28L277.482 369.204C277.267 369.101 277.006 369.013 276.698 368.938C276.399 368.854 276.077 368.812 275.732 368.812C275.321 368.812 275.018 368.882 274.822 369.022C274.635 369.162 274.542 369.405 274.542 369.75C274.542 369.993 274.626 370.184 274.794 370.324C274.962 370.455 275.167 370.576 275.41 370.688C275.662 370.791 275.933 370.893 276.222 370.996C276.521 371.099 276.791 371.234 277.034 371.402C277.286 371.57 277.496 371.785 277.664 372.046C277.832 372.298 277.916 372.634 277.916 373.054C277.916 373.353 277.865 373.633 277.762 373.894C277.669 374.155 277.519 374.379 277.314 374.566C277.109 374.753 276.852 374.897 276.544 375C276.245 375.112 275.891 375.168 275.48 375.168C274.948 375.168 274.495 375.117 274.122 375.014C273.749 374.911 273.436 374.79 273.184 374.65L273.52 373.698C273.735 373.819 274.015 373.931 274.36 374.034C274.705 374.137 275.055 374.188 275.41 374.188C275.811 374.188 276.143 374.109 276.404 373.95C276.665 373.791 276.796 373.507 276.796 373.096Z" fill="white" />
            </svg>