<svg width="375" height="506" viewBox="0 0 375 506" fill="none" xmlns="http://www.w3.org/2000/svg">
<g clip-path="url(#clip0_8_15)">
<path d="M187 506C326.728 506 440 392.728 440 253C440 113.272 326.728 0 187 0C47.272 0 -66 113.272 -66 253C-66 392.728 47.272 506 187 506Z" fill="white" fill-opacity="0.02"/>
<path d="M187 425C281.993 425 359 347.993 359 253C359 158.007 281.993 81 187 81C92.007 81 15 158.007 15 253C15 347.993 92.007 425 187 425Z" fill="white" fill-opacity="0.02"/>
<path d="M187 370C251.617 370 304 317.617 304 253C304 188.383 251.617 136 187 136C122.383 136 70 188.383 70 253C70 317.617 122.383 370 187 370Z" fill="white" fill-opacity="0.03"/>
<path d="M187 329C228.974 329 263 294.974 263 253C263 211.026 228.974 177 187 177C145.026 177 111 211.026 111 253C111 294.974 145.026 329 187 329Z" fill="white" fill-opacity="0.04"/>
</g>
<defs>
<clipPath id="clip0_8_15">
<rect width="375" height="506" fill="white"/>
</clipPath>
</defs>
</svg>